<svg width="143" height="91" viewBox="0 0 143 91" fill="none" xmlns="http://www.w3.org/2000/svg">
<path fill-rule="evenodd" clip-rule="evenodd" d="M81.4962 0.918839C80.5139 1.39362 79.1862 2.92366 78.546 4.31874C77.9057 5.71464 71.6097 24.2409 64.5564 45.4899C54.8917 74.6005 51.8667 84.6668 52.2836 86.3278C52.858 88.6179 56.3745 91 59.1825 91C63.0679 91 63.9389 88.9635 77.6043 47.9207C84.9721 25.7929 91 6.90972 91 5.96016C91 3.70738 87.1959 -0.0697504 84.9989 0.000979304C84.0539 0.0310597 82.4777 0.444056 81.4962 0.918839ZM28.8438 14.4884C27.5031 15.3298 20.4652 22.0304 13.2031 29.3782C1.39669 41.3258 0 43.0282 0 45.4769C0 47.9386 1.46006 49.6849 14.4219 62.7309C22.3543 70.7144 29.705 77.4638 30.758 77.7288C31.8232 77.9979 33.8845 77.6329 35.4079 76.9061C38.3638 75.4956 39.5273 72.8469 38.5678 69.7177C38.2484 68.6795 33.0168 62.7935 26.9401 56.6384L15.8925 45.446L26.9929 34.2813C33.4839 27.7522 38.3094 22.2239 38.6133 20.9679C38.9277 19.6655 38.6376 17.8631 37.8771 16.3916C35.9125 12.5884 32.8876 11.9519 28.8438 14.4884ZM107.511 13.9201C105.264 15.0062 103.678 18.7704 104.432 21.2264C104.751 22.2654 109.973 28.1408 116.036 34.2837L127.06 45.4509L115.53 57.1603C108.204 64.5999 104 69.4811 104 70.5469C104 75.0639 108.258 78.7337 112.313 77.7118C113.327 77.4557 120.646 70.7144 128.578 62.7309C141.543 49.6817 143 47.9394 143 45.4761C143 43.0201 141.588 41.3104 129.391 29.0001C113.427 12.8892 111.866 11.8128 107.511 13.9201Z" fill="#1A75E8"/>
</svg>
